HIERARCHY
ROOT Hips
{
  OFFSET 263.056 91.6644 -274.608
  CHANNELS 6 Xposition Yposition Zposition Zrotation Xrotation Yrotation
  JOINT LeftUpLeg
  {
    OFFSET 8.64259 1.95398 -2.38835
    CHANNELS 3 Zrotation Xrotation Yrotation
    JOINT LeftLeg
    {
      OFFSET 43.7702 0 0
      CHANNELS 3 Zrotation Xrotation Yrotation
      JOINT LeftFoot
      {
        OFFSET 40.6238 0 0
        CHANNELS 3 Zrotation Xrotation Yrotation
        JOINT LeftToeBase
        {
          OFFSET 12.7242 0 0
          CHANNELS 3 Zrotation Xrotation Yrotation
          End Site
          {
            OFFSET 0 0 0
          }
        }
      }
    }
  }
  JOINT RightUpLeg
  {
    OFFSET -8.2249 1.95398 -2.59336
    CHANNELS 3 Zrotation Xrotation Yrotation
    JOINT RightLeg
    {
      OFFSET 43.5653 0 0
      CHANNELS 3 Zrotation Xrotation Yrotation
      JOINT RightFoot
      {
        OFFSET 40.6238 0 0
        CHANNELS 3 Zrotation Xrotation Yrotation
        JOINT RightToeBase
        {
          OFFSET 12.7242 0 0
          CHANNELS 3 Zrotation Xrotation Yrotation
          End Site
          {
            OFFSET 0 0 0
          }
        }
      }
    }
  }
  JOINT Spine
  {
    OFFSET 0.165834 0.87714 6.61349
    CHANNELS 3 Zrotation Xrotation Yrotation
    JOINT Spine1
    {
      OFFSET 7.38963 1.71661e-005 0
      CHANNELS 3 Zrotation Xrotation Yrotation
      JOINT Spine2
      {
        OFFSET 11.9445 1.14441e-005 0
        CHANNELS 3 Zrotation Xrotation Yrotation
        JOINT Spine3
        {
          OFFSET 14.7254 4.19617e-005 0
          CHANNELS 3 Zrotation Xrotation Yrotation
          JOINT Spine4
          {
            OFFSET 10.9679 0 0
            CHANNELS 3 Zrotation Xrotation Yrotation
            JOINT RightShoulder
            {
              OFFSET 2.46616 -1.6653 3.69651
              CHANNELS 3 Zrotation Xrotation Yrotation
              JOINT RightArm
              {
                OFFSET 13.0012 0 0
                CHANNELS 3 Zrotation Xrotation Yrotation
                JOINT RightForeArm
                {
                  OFFSET 28.7848 1.52588e-005 0
                  CHANNELS 3 Zrotation Xrotation Yrotation
                  JOINT RightHand
                  {
                    OFFSET 26.5688 1.52588e-005 0
                    CHANNELS 3 Zrotation Xrotation Yrotation
                    End Site
                    {
                      OFFSET 0 0 0
                    }
                  }
                }
              }
            }
            JOINT LeftShoulder
            {
              OFFSET 2.38034 -1.29275 -3.7523
              CHANNELS 3 Zrotation Xrotation Yrotation
              JOINT LeftArm
              {
                OFFSET 16.3182 6.10352e-005 0
                CHANNELS 3 Zrotation Xrotation Yrotation
                JOINT LeftForeArm
                {
                  OFFSET 27.0901 0 0
                  CHANNELS 3 Zrotation Xrotation Yrotation
                  JOINT LeftHand
                  {
                    OFFSET 24.5451 1.52588e-005 0
                    CHANNELS 3 Zrotation Xrotation Yrotation
                    End Site
                    {
                      OFFSET 0 0 0
                    }
                  }
                }
              }
            }
            JOINT Neck
            {
              OFFSET 5.0226 -0.0266342 0
              CHANNELS 3 Zrotation Xrotation Yrotation
              JOINT Head
              {
                OFFSET 6.69364 2.86102e-005 0
                CHANNELS 3 Zrotation Xrotation Yrotation
                End Site
                {
                  OFFSET 0 0 0
                }
              }
            }
          }
        }
      }
    }
  }
}
MOTION
Frames:	14
Frame Time:	0.0416667
31.1505 96.2923 -26.8791 98.5939 -38.2051 93.136 -174.075 0.682577 84.006 -22.0245 14.8686 -1.86669 62.963 6.77996 10.8735 39.6507 11.3466 -8.05054 178.738 18.8279 88.7851 -45.8744 6.56524 -3.07669 59.4905 -1.40411 -0.773344 40.0637 0.80251 3.036 -0.289623 7.08486 -89.7872 12.705 -0.473538 0.481515 1.03401 -0.451864 0.501874 -21.5014 -0.596355 0.316935 -1.48877 -0.596355 0.316941 84.626 -49.6655 -109.098 14.1536 -19.994 -7.39842 9.58818 3.68558 -93.6412 -14.8802 -1.48223 6.1327 -99.7443 -40.4486 60.5465 -15.351 3.37891 -9.56223 -23.1859 -19.7802 -63.6893 -4.32703 -0.00806851 -10.0848 -11.8548 2.66477 3.52228 -17.0074 2.14687 3.43403 
38.6013 95.9585 -21.2157 95.1067 -33.7743 90.4479 -173.889 -4.17606 84.7655 -18.5655 16.9711 -1.69485 63.2077 7.34611 12.2355 46.1742 16.9879 -11.0806 178.232 18.3949 87.9896 -16.1535 3.73525 -0.321681 62.8376 -2.16822 -1.25102 51.4719 1.43294 0.254474 -0.531082 6.88206 -89.7253 13.1125 -0.921747 0.66342 1.44171 -0.891667 0.703339 -21.0956 -1.07853 0.355705 -1.08292 -1.07851 0.355703 85.6714 -49.5513 -107.55 13.7708 -14.1175 -7.39288 14.2941 3.65868 -91.8262 -10.8222 -0.818957 4.15231 -100.007 -40.0457 59.9486 -15.1596 4.62034 -11.5841 -19.8497 -15.3533 -67.7495 1.50581 -0.0995056 -4.6354 -10.752 0.926117 0.880601 -16.6105 0.610788 2.41536 
46.1383 94.4332 -15.3418 94.1216 -29.604 88.2546 -173.696 -9.97639 85.2088 -17.7671 20.318 -1.27587 63.3042 8.79507 12.5465 49.5956 20.9771 -7.24229 179.748 20.4667 85.9094 -0.364049 10.5773 -1.35933 61.1347 -0.336005 -0.085869 63.3411 3.47305 5.5318 -0.805461 6.84024 -89.5339 13.2005 -1.37374 1.10493 1.52975 -1.32379 1.16432 -21.0097 -1.64228 0.640927 -0.997073 -1.64231 0.640924 86.9711 -48.7875 -105.793 13.1114 -10.0194 -9.1839 17.3981 3.48338 -90.5225 -7.64333 -0.590589 5.77514 -100.375 -39.8117 59.2539 -14.001 5.18442 -14.4573 -17.0878 -12.4522 -71.2444 4.95733 0.0996102 -1.43742 -9.50616 -0.415118 -0.912407 -16.6398 -0.516807 1.2878 
54.3346 92.1053 -8.82123 95.2036 -28.495 88.5158 -173.501 -13.7671 87.2571 -24.8868 26.1683 0.0679976 61.4717 6.32181 11.3023 57.2784 29.3247 -4.32934 178.863 24.2148 87.0656 -11.2337 13.6283 0.439622 63.3034 -1.10375 -0.597522 55.581 2.2579 3.21765 -0.883675 6.94079 -89.5246 13.0009 -1.52606 1.13457 1.33033 -1.47463 1.20063 -21.2106 -1.79646 0.623399 -1.19795 -1.79648 0.62339 87.2752 -48.6463 -105.366 11.817 -8.4224 -10.8305 19.6126 3.78819 -89.0229 -5.90648 -0.35929 5.69406 -100.756 -39.6816 58.586 -14.9236 4.10472 -14.3273 -17.2382 -11.1081 -75.0437 8.14139 0.395367 0.937009 -9.35766 -0.85806 -1.37273 -16.4029 -0.829256 0.389935 
63.673 90.6829 -2.05687 96.2155 -29.7572 93.1552 -172.584 -12.8814 93.6026 -35.4825 28.2457 1.58239 46.1563 -9.7068 -3.42096 66.4858 41.355 1.32316 179.439 28.1196 92.5683 -30.5608 8.85095 0.731078 60.0894 -0.477234 -0.184568 40.2954 0.917857 6.54476 -0.812543 6.92304 -90.1078 13.0327 -1.66466 -0.0101796 1.36288 -1.6635 0.0631075 -21.1805 -1.58463 -0.510145 -1.16789 -1.58463 -0.510143 86.8535 -48.6739 -106.008 11.2482 -9.7704 -10.6971 19.8159 4.26579 -88.4363 -4.73875 -0.234494 6.05241 -100.62 -41.0653 59.4334 -16.8209 3.89088 -11.8606 -15.7369 -10.0988 -77.1738 7.97482 0.636819 3.66957 -10.8614 -0.267251 0.983236 -16.9073 -0.291253 -0.169673 
71.5437 90.3604 4.49179 99.6188 -30.2509 96.0001 -175.303 -4.3489 95.3161 -55.1941 26.3867 2.57141 34.578 -17.5311 -8.56379 38.3443 11.6748 12.1497 178.902 25.007 95.9032 -43.1493 8.57381 0.408747 68.7697 -2.39041 -1.26436 26.6956 -0.897914 9.42805 -0.701393 7.18679 -90.1233 12.5007 -1.45231 -0.0786897 0.830573 -1.45434 -0.01468 -21.7105 -1.36151 -0.511611 -1.69783 -1.3615 -0.511603 85.7831 -49.1739 -107.497 12.0267 -9.93122 -8.90503 19.6141 4.02336 -88.3885 -4.95176 -0.298261 6.92226 -100.685 -40.5652 59.1062 -17.6902 3.86927 -9.87722 -14.5896 -9.49112 -78.0278 8.64441 0.717904 3.99828 -12.028 -0.361766 0.889905 -16.5431 -0.303861 -0.80507 
79.4531 92.5561 11.2235 100.533 -31.9564 95.8661 -175.44 7.54338 93.9196 -63.2977 19.6238 1.62186 45.9884 -8.89729 2.53941 42.5222 16.538 7.88992 179.325 15.8009 96.8011 -40.7149 8.66776 -0.375332 74.1311 -4.10997 -2.03224 26.0993 -1.11655 10.9729 -0.396378 7.29919 -89.9634 12.2779 -0.770274 0.159855 0.607227 -0.7625 0.193598 -21.9299 -0.782704 -0.0790458 -1.91724 -0.782696 -0.0790501 85.4941 -49.0257 -107.985 13.2998 -9.63217 -7.37249 19.5567 4.0659 -87.7956 -5.45991 -0.30315 5.53242 -100.885 -41.0848 59.0268 -17.2127 4.60364 -10.4601 -15.5135 -10.0204 -76.9713 9.83839 0.735426 3.33608 -12.7981 -0.833024 0.401057 -15.9311 -0.757453 -0.869933 
87.0955 94.7523 17.6936 99.353 -35.0566 93.5106 -174.028 15.9863 91.1067 -52.1204 14.3049 0.112902 53.1974 -2.81074 4.82707 45.7503 20.757 8.62524 179.831 6.96589 95.966 -34.0045 7.06259 -1.90533 75.5215 -4.61522 -2.21368 28.9595 -0.709062 11.6688 -0.0591509 7.21342 -89.6628 12.4457 0.0428612 0.667093 0.774609 0.0721753 0.664551 -21.7591 -0.159617 0.649132 -1.74645 -0.159599 0.649129 85.1719 -48.606 -108.613 15.2098 -8.26345 -5.89082 15.114 1.85591 -88.1276 -3.22785 -0.106531 6.20213 -100.028 -40.8852 60.2894 -17.8332 5.13465 -9.7412 -15.8139 -9.9124 -77.5469 10.123 0.671971 2.59003 -13.2893 -0.527164 0.954498 -15.0914 -0.37931 -1.70647 
94.6855 95.6304 23.5525 97.2298 -38.8537 91.6937 -173.817 18.0607 89.6074 -24.6148 9.5253 -0.698406 55.3196 -0.112872 5.86313 49.1025 26.4102 13.1043 179.102 -0.648261 94.642 -28.1086 3.31521 -2.04794 75.3735 -4.83529 -2.30481 31.5337 -0.259954 10.7923 0.287719 7.09201 -89.5622 12.6866 0.780662 0.782866 1.01572 0.81433 0.747749 -21.5185 0.509294 0.981281 -1.50584 0.509295 0.981276 85.0565 -46.9775 -109.333 16.6263 -8.4612 -5.31346 15.8191 2.53469 -89.6904 -4.95582 -0.289573 6.06718 -99.1789 -41.0974 61.7268 -17.85 5.28993 -9.02001 -17.0108 -9.68246 -79.7346 10.1035 0.606666 2.00855 -12.2537 -0.101748 3.41556 -14.6005 0.13328 -3.56975 
102.627 95.2074 29.0725 94.6433 -42.9295 91.0857 -174.855 21.7061 90.3135 -4.54872 7.07693 0.146179 61.1639 2.52713 6.6126 49.3152 28.3155 17.3442 177.925 -6.92865 93.4427 -22.6962 1.56758 -1.59093 74.6826 -5.52424 -2.66561 37.2842 0.679242 13.0341 0.619611 6.95685 -89.6888 12.958 1.37952 0.454735 1.2877 1.39822 0.393564 -21.2514 1.17907 0.848355 -1.23873 1.17908 0.848362 84.5989 -46.3197 -110.275 15.6178 -9.17195 -5.85391 18.3803 2.85552 -90.08 -2.46175 0.103666 2.25337 -97.687 -41.458 64.2486 -18.0831 5.44169 -8.80312 -17.9332 -9.34615 -81.8673 9.1318 0.356191 0.0627568 -10.3766 0.274619 5.12754 -14.2255 0.422485 -4.21266 
111.169 93.1915 35.0495 94.0131 -46.5628 91.2265 -174.032 24.4058 90.5593 -3.5425 3.4467 -0.80987 61.5427 2.92422 6.21669 50.3684 29.9362 17.6535 177.67 -9.86066 92.2601 -28.3989 -4.17304 -3.65844 73.0509 -5.30729 -2.66924 47.4891 2.05202 8.14533 1.01422 6.94767 -89.6612 12.9781 2.17633 0.414426 1.30894 2.19248 0.318186 -21.2383 1.95114 1.04957 -1.22566 1.95115 1.04957 83.8945 -45.9563 -111.511 15.8709 -8.20633 -5.3746 20.3717 3.29241 -89.6078 -1.80567 0.214873 -0.435551 -96.9374 -41.5756 65.4909 -16.7529 6.71621 -10.2243 -19.3916 -9.8486 -82.2568 7.36807 0.137034 -1.67394 -10.1645 0.078562 5.06757 -13.1311 0.297053 -5.5863 
120.828 91.292 41.7845 94.3673 -43.6048 89.659 -174.825 26.8102 86.973 -18.056 8.01408 -1.68749 54.8965 -2.43821 1.48105 44.7879 18.401 3.56452 174.704 -7.80019 86.2256 -41.8677 -6.90469 -3.82308 55.1424 0.850373 1.19808 55.651 4.57547 19.0246 0.669948 6.90889 -89.3334 13.0456 1.6503 1.12862 1.37511 1.69835 1.05489 -21.16 1.23486 1.57238 -1.14736 1.23486 1.57238 82.2452 -48.6337 -113.066 15.4044 -7.36981 -2.24757 20.7379 3.3445 -89.2742 -1.26174 0.265966 -1.69924 -96.7036 -42.0358 66.038 -16.9153 7.711 -9.8361 -17.216 -9.36743 -82.6101 6.62247 0.063315 -2.37075 -11.5714 -0.464032 2.96793 -13.3655 -0.0436162 -6.20212 
129.859 90.9017 48.1053 94.9876 -41.1284 88.3784 -175.439 28.2285 82.9829 -34.2611 13.0793 -1.3162 58.4611 0.813256 8.17458 38.2899 9.82091 -11.8464 175.053 4.4263 88.6382 -62.7034 -0.745807 -4.12857 36.9504 4.86349 5.07608 34.1391 0.89251 8.41753 0.273379 6.94253 -89.0837 12.9788 0.982847 1.71561 1.30717 1.05738 1.6707 -21.2198 0.421914 1.93161 -1.20718 0.421914 1.9316 80.8519 -50.8211 -114.315 16.0088 -6.44237 0.115445 18.3586 2.45464 -89.4217 -3.47169 0.109922 -1.38923 -98.104 -42.2417 63.9014 -17.7257 6.90392 -6.92519 -15.9711 -8.94763 -82.9508 6.21991 0.0657065 -2.28526 -12.6769 -0.69365 1.41758 -13.4985 -0.185114 -6.23961 
137.46 93.557 54.0446 98.5454 -45.1661 91.963 -173.361 17.3833 85.0622 -31.6221 13.4019 -2.53304 61.1484 4.27155 11.7194 38.9898 10.2744 -14.2855 179.011 15.151 88.617 -69.3115 4.09924 -5.14453 46.8645 1.417 1.46468 36.3001 0.478957 5.19504 0.389442 7.28855 -89.2287 12.2878 1.13977 1.41149 0.616666 1.20077 1.35996 -21.914 0.662926 1.68871 -1.90137 0.662937 1.68871 80.24 -52.4264 -114.6 15.5343 -8.27367 -1.25636 18.2707 2.98454 -88.2266 -4.33106 0.0514131 -1.06653 -98.2153 -41.9783 63.6183 -19.6537 5.46473 -4.65211 -16.0984 -9.1559 -82.3833 7.29089 0.0911861 -2.22037 -13.1262 -0.0185827 0.707492 -14.1311 0.396323 -4.57769 
